<?xml version="1.0" standalone="no"?>
<!DOCTYPE svg PUBLIC "-//W3C//DTD SVG 20010904//EN"
 "http://www.w3.org/TR/2001/REC-SVG-20010904/DTD/svg10.dtd">
<svg version="1.0" xmlns="http://www.w3.org/2000/svg"
 width="512.000000pt" height="512.000000pt" viewBox="0 0 512.000000 512.000000"
 preserveAspectRatio="xMidYMid meet">

<g transform="translate(0.000000,512.000000) scale(0.100000,-0.100000)"
fill="#000000" stroke="none">
<path d="M1715 5104 c-692 -43 -1233 -249 -1397 -534 -62 -106 -59 3 -56
-1806 l3 -1650 37 -75 c102 -207 388 -378 801 -479 340 -84 832 -112 1188 -70
l97 12 43 -47 c96 -105 261 -226 404 -298 98 -49 263 -103 375 -123 127 -23
362 -23 488 0 570 105 1008 532 1135 1106 28 129 30 402 3 535 -55 277 -174
508 -366 708 -238 249 -529 393 -872 433 l-58 6 0 792 c0 862 0 854 -57 954
-40 70 -168 190 -262 245 -227 135 -549 230 -911 271 -134 16 -481 27 -595 20z
m460 -174 c582 -49 1057 -236 1169 -462 135 -270 -311 -549 -1029 -645 -183
-24 -647 -24 -830 0 -427 57 -768 179 -937 336 -83 77 -118 139 -118 211 0
258 520 505 1176 559 144 12 431 12 569 1z m-1673 -952 c571 -410 1882 -464
2615 -107 56 28 135 74 175 104 l73 53 3 -254 c2 -220 0 -259 -14 -287 -99
-195 -466 -369 -929 -441 -359 -55 -842 -45 -1181 24 -410 84 -713 241 -798
413 -26 51 -26 53 -26 299 0 136 2 248 4 248 3 0 38 -24 78 -52z m2868 -948
l0 -210 -28 0 c-59 0 -221 -33 -321 -66 -277 -91 -513 -260 -693 -496 -17 -22
-198 -38 -435 -38 -613 1 -1169 156 -1384 387 -81 87 -80 79 -77 368 l3 255
66 -48 c403 -294 1253 -418 1999 -291 331 56 653 177 811 304 30 24 55 44 57
44 1 1 2 -93 2 -209z m319 -395 c377 -72 727 -343 886 -687 82 -178 115 -332
115 -535 0 -476 -270 -904 -703 -1114 -327 -159 -737 -159 -1064 0 -358 174
-616 511 -688 901 -20 110 -20 318 0 435 96 545 545 958 1110 1019 70 7 259
-3 344 -19z m-3229 -210 c6 -8 48 -37 92 -66 324 -208 883 -325 1461 -305 103
3 187 5 187 3 0 -2 -15 -39 -34 -83 -63 -144 -116 -375 -116 -503 l0 -41 -185
0 c-675 0 -1294 207 -1421 475 -23 48 -24 58 -24 293 0 199 2 242 14 242 7 0
19 -7 26 -15z m80 -849 c296 -198 801 -316 1354 -316 l161 0 23 -116 c26 -135
84 -296 147 -407 39 -68 42 -79 27 -85 -9 -4 -168 -7 -352 -7 -297 1 -352 3
-480 23 -478 74 -832 228 -951 413 l-34 53 -3 260 -3 259 23 -17 c13 -9 52
-36 88 -60z"/>
<path d="M3343 2436 c-80 -20 -161 -66 -222 -127 -98 -98 -141 -206 -141 -356
l0 -83 -57 0 c-107 0 -180 -37 -209 -107 -18 -42 -21 -964 -3 -1010 15 -40 48
-73 94 -94 38 -17 78 -19 650 -19 570 0 613 2 650 19 50 22 92 71 100 114 3
18 5 246 3 508 l-3 476 -28 36 c-39 52 -79 70 -169 75 l-78 5 0 79 c0 44 -7
108 -16 142 -64 247 -322 402 -571 342z m223 -173 c67 -23 154 -110 178 -178
9 -27 20 -87 23 -132 l6 -83 -318 0 -318 0 6 83 c3 45 13 105 23 132 23 65
111 155 174 178 60 21 165 21 226 0z m474 -1008 l0 -445 -585 0 -585 0 0 445
0 445 585 0 585 0 0 -445z"/>
<path d="M3385 1546 c-37 -17 -80 -62 -94 -99 -25 -64 -1 -152 53 -194 22 -18
24 -28 27 -117 4 -88 6 -100 28 -117 13 -10 38 -19 56 -19 18 0 43 9 56 19 22
17 24 29 28 117 3 91 5 99 28 118 32 24 62 90 63 134 1 120 -134 207 -245 158z"/>
</g>
</svg>
