<?xml version="1.0" standalone="no"?>
<!DOCTYPE svg PUBLIC "-//W3C//DTD SVG 20010904//EN"
 "http://www.w3.org/TR/2001/REC-SVG-20010904/DTD/svg10.dtd">
<svg version="1.0" xmlns="http://www.w3.org/2000/svg"
 width="512.000000pt" height="512.000000pt" viewBox="0 0 512.000000 512.000000"
 preserveAspectRatio="xMidYMid meet">

<g transform="translate(0.000000,512.000000) scale(0.100000,-0.100000)"
fill="#000000" stroke="none">
<path d="M1517 4716 c-57 -21 -100 -58 -132 -117 -25 -47 -30 -67 -33 -149
l-4 -95 -77 -23 c-42 -13 -116 -44 -165 -69 l-89 -44 -61 59 c-82 81 -115 96
-201 97 -91 0 -151 -32 -242 -128 -80 -85 -102 -132 -103 -213 0 -82 20 -125
92 -201 l61 -63 -45 -97 c-25 -54 -56 -130 -69 -170 l-22 -71 -100 -4 c-84 -2
-101 -6 -113 -22 -18 -25 -18 -47 0 -72 13 -17 25 -19 148 -16 98 3 137 8 149
18 9 8 26 53 39 101 13 50 50 139 86 212 35 69 64 129 64 134 0 5 -38 48 -84
96 -129 134 -129 171 -2 299 80 80 84 82 130 82 62 0 87 -15 171 -99 45 -47
77 -71 92 -71 13 0 45 14 73 31 66 41 196 95 285 119 99 28 105 37 105 175 0
109 1 115 27 146 38 45 79 59 175 59 60 0 95 -6 125 -19 63 -29 76 -63 81
-203 3 -76 8 -121 16 -127 7 -6 53 -22 102 -36 49 -14 143 -52 209 -85 66 -33
127 -60 135 -60 9 0 40 25 70 56 88 90 126 114 179 114 50 0 73 -12 135 -69
65 -61 96 -110 96 -153 0 -54 -17 -82 -99 -163 -83 -81 -87 -99 -40 -175 40
-65 92 -189 114 -271 30 -110 28 -109 156 -109 90 0 117 -4 149 -20 61 -31 75
-66 75 -190 0 -94 -2 -108 -23 -138 -38 -52 -68 -62 -190 -62 -71 0 -114 -4
-125 -12 -9 -7 -28 -53 -42 -103 -14 -49 -52 -144 -85 -210 -33 -66 -60 -129
-60 -140 0 -12 29 -49 71 -90 81 -80 99 -109 99 -160 0 -51 -18 -81 -97 -156
-113 -109 -156 -106 -284 17 -48 46 -95 84 -103 84 -9 0 -53 -21 -97 -47 -47
-27 -140 -67 -218 -93 l-136 -46 -5 -125 c-6 -138 -15 -164 -73 -199 -26 -16
-51 -20 -130 -20 -177 0 -207 30 -207 206 0 135 -6 146 -100 169 -78 20 -213
76 -292 122 -31 18 -64 33 -73 33 -9 0 -56 -38 -104 -84 -131 -126 -180 -126
-301 -1 -114 119 -110 164 27 307 84 88 83 83 27 178 -41 70 -87 182 -110 270
-25 94 -34 100 -168 100 -100 1 -115 3 -151 25 -48 30 -66 31 -88 7 -65 -72
55 -152 228 -152 l63 0 22 -67 c11 -38 42 -112 67 -165 l46 -98 -57 -59 c-71
-75 -96 -127 -96 -206 0 -88 30 -144 127 -236 97 -92 145 -114 236 -107 77 7
104 20 185 93 l63 58 97 -46 c53 -24 127 -55 165 -67 l67 -22 0 -72 c0 -136
50 -230 148 -277 41 -20 62 -23 167 -24 139 0 179 11 238 64 62 56 87 119 87
222 l0 87 83 27 c45 15 121 47 168 70 l86 43 58 -58 c57 -58 76 -71 127 -89
27 -10 27 -10 10 -43 -12 -23 -18 -64 -20 -136 -4 -95 -2 -107 23 -158 40 -81
85 -108 191 -112 l82 -4 22 -66 c13 -37 36 -93 52 -126 l30 -59 -51 -51 c-58
-59 -71 -88 -71 -157 0 -72 18 -105 107 -191 94 -91 135 -107 221 -88 42 9 65
23 110 65 l57 53 65 -33 c36 -18 90 -41 122 -50 l56 -18 4 -77 c2 -64 8 -84
33 -125 46 -75 93 -95 222 -95 114 0 158 12 206 58 44 42 59 78 64 162 l6 78
41 12 c22 6 78 29 122 50 l82 38 48 -49 c46 -47 111 -79 158 -79 58 0 103 24
174 94 82 78 111 129 112 194 0 59 -23 109 -76 163 l-46 47 35 73 c19 41 42
98 51 127 l18 52 66 0 c81 0 134 22 179 74 43 48 48 70 48 197 0 100 -2 108
-30 154 -42 68 -96 95 -190 95 l-72 0 -28 78 c-15 42 -38 99 -52 126 l-25 49
46 46 c25 25 52 63 61 83 19 47 19 118 0 164 -20 48 -133 160 -187 184 -84 38
-169 18 -243 -59 -21 -22 -44 -41 -50 -41 -5 0 -37 14 -70 30 -33 16 -86 37
-117 47 -52 16 -58 21 -58 45 0 25 2 27 26 18 41 -16 162 -12 200 6 49 23 77
68 82 129 l4 52 69 27 69 27 39 -31 c45 -36 102 -48 154 -31 50 17 144 118
153 165 9 50 -9 105 -44 139 l-29 28 30 75 31 74 44 0 c60 0 105 30 132 86 29
59 26 178 -6 220 -33 45 -70 67 -122 72 l-49 4 -27 69 -27 70 25 30 c76 89 50
195 -68 280 -63 46 -158 38 -209 -19 -18 -19 -18 -19 -90 8 l-72 28 -5 51
c-10 98 -73 146 -190 146 -117 0 -176 -45 -188 -144 l-7 -52 -70 -30 -69 -29
-33 32 c-29 28 -42 33 -96 36 -57 3 -66 1 -104 -27 -56 -40 -100 -102 -108
-151 -7 -44 18 -112 53 -143 l20 -18 -23 -52 c-12 -29 -25 -59 -28 -68 -4 -11
-21 -18 -55 -21 -96 -9 -151 -79 -152 -192 0 -113 60 -186 152 -186 l44 0 27
-69 c15 -38 27 -73 27 -78 0 -5 -11 -20 -25 -33 -60 -57 -55 -149 12 -222 l45
-47 -25 -33 c-34 -46 -39 -63 -46 -147 l-6 -74 -54 -18 c-30 -11 -85 -33 -123
-51 l-69 -31 -47 46 c-74 73 -137 91 -226 65 -29 -9 -63 -34 -117 -87 l-76
-76 32 70 c18 39 43 102 55 141 l23 71 91 5 c103 6 155 24 204 71 62 59 76 99
80 227 2 66 -1 133 -7 156 -16 58 -63 118 -118 151 -41 24 -62 29 -147 33
l-98 5 -33 92 c-18 50 -50 125 -71 167 l-38 76 59 57 c72 71 99 128 99 209 -1
86 -28 136 -128 232 -68 65 -94 84 -137 96 -108 33 -182 12 -278 -79 l-68 -65
-58 32 c-32 17 -106 48 -164 69 l-106 37 -6 98 c-8 137 -47 205 -144 250 -44
21 -65 24 -170 23 -74 0 -134 -5 -158 -13z m2723 -445 c5 -11 10 -46 10 -79 0
-36 5 -64 13 -70 6 -5 39 -17 72 -27 33 -9 85 -30 115 -46 30 -16 61 -29 68
-29 7 0 35 20 61 45 26 25 54 45 62 45 21 0 89 -72 89 -95 0 -12 -18 -39 -40
-60 -23 -22 -40 -49 -40 -61 0 -12 15 -55 34 -94 19 -39 37 -89 41 -110 9 -53
25 -63 108 -69 l72 -6 3 -58 c4 -77 -5 -87 -83 -87 -73 0 -84 -9 -109 -89 -10
-30 -31 -81 -47 -113 -16 -31 -29 -62 -29 -68 0 -6 20 -33 45 -59 25 -26 45
-57 45 -68 0 -29 -73 -93 -98 -86 -11 2 -37 22 -58 44 -46 47 -66 48 -142 10
-31 -16 -77 -35 -102 -42 -70 -20 -80 -33 -80 -102 0 -77 -16 -97 -78 -97 -66
0 -82 19 -82 95 0 70 -12 88 -70 100 -19 4 -68 22 -109 41 -41 19 -81 34 -90
34 -9 0 -34 -18 -55 -39 -53 -55 -70 -57 -117 -14 -49 45 -49 69 0 117 22 21
41 47 44 57 3 10 -8 44 -24 76 -16 32 -37 83 -45 113 -24 80 -35 90 -109 90
-78 0 -87 10 -83 87 l3 58 72 6 c39 3 78 11 86 17 8 7 20 33 26 58 7 26 27 77
46 115 19 38 35 73 35 78 0 6 -20 33 -45 61 -25 28 -45 58 -45 67 0 21 69 93
88 93 8 0 37 -20 63 -45 26 -25 57 -45 68 -45 10 0 39 11 62 25 24 14 73 34
108 45 36 11 70 25 78 31 8 7 13 34 13 71 0 87 9 98 80 98 48 0 61 -4 70 -19z
m-357 -1443 c40 -21 46 -40 47 -134 0 -113 10 -128 95 -150 33 -8 105 -37 161
-64 55 -28 111 -50 125 -50 16 0 45 22 91 67 58 57 73 67 103 67 30 0 45 -10
101 -64 35 -36 67 -75 71 -88 8 -35 -13 -74 -78 -138 -32 -32 -59 -67 -59 -78
0 -11 20 -58 44 -105 24 -48 54 -120 66 -161 32 -108 35 -110 146 -110 85 0
95 -2 123 -26 31 -25 31 -27 31 -119 0 -85 -2 -97 -24 -122 -23 -26 -30 -28
-113 -31 -135 -4 -128 0 -158 -98 -14 -47 -46 -124 -70 -172 -25 -47 -45 -95
-45 -106 0 -12 29 -50 67 -88 61 -62 68 -72 68 -109 0 -37 -6 -46 -67 -105
-57 -55 -71 -64 -102 -64 -32 0 -47 10 -111 70 -41 39 -78 70 -83 70 -6 0 -54
-22 -108 -49 -55 -28 -132 -59 -173 -70 -41 -12 -79 -25 -85 -31 -6 -6 -13
-58 -16 -115 -7 -139 -15 -149 -139 -153 -86 -4 -89 -3 -122 26 -33 29 -33 31
-37 131 -3 58 -9 104 -16 110 -6 5 -54 23 -106 41 -52 17 -127 49 -167 71 -40
21 -77 39 -83 39 -6 0 -44 -31 -85 -70 -64 -61 -79 -70 -111 -70 -33 0 -46 8
-106 68 -92 93 -92 108 2 207 39 41 70 83 70 94 0 11 -14 43 -30 72 -36 60
-71 144 -90 214 -21 80 -29 85 -136 85 -88 0 -95 2 -125 28 -27 24 -32 36 -36
92 -3 36 0 84 6 107 16 59 46 73 159 73 106 0 110 4 137 104 10 38 40 111 66
164 27 52 49 101 49 109 0 8 -32 47 -70 88 -75 79 -83 101 -56 154 18 35 98
109 132 121 40 16 67 3 135 -66 44 -44 71 -64 88 -64 14 0 63 20 110 44 48 24
120 54 161 66 41 13 81 27 88 33 8 6 12 37 12 86 0 93 14 145 43 166 26 18
177 21 210 3z m-1090 -353 c-3 -9 -8 -14 -10 -11 -3 3 -2 9 2 15 9 16 15 13 8
-4z"/>
<path d="M4090 4009 c-243 -39 -424 -295 -381 -537 41 -229 232 -392 461 -392
231 0 427 169 463 401 38 248 -141 489 -393 529 -73 11 -74 11 -150 -1z m233
-144 c76 -37 149 -117 177 -193 30 -78 25 -204 -10 -277 -71 -148 -245 -231
-400 -191 -111 29 -185 88 -237 190 -38 73 -44 198 -14 277 36 96 120 176 222
213 70 26 189 17 262 -19z"/>
<path d="M3684 2351 c-252 -40 -473 -227 -550 -465 -38 -115 -44 -262 -16
-372 52 -206 183 -370 367 -459 108 -53 189 -68 330 -62 102 3 132 8 200 34
137 51 243 130 320 238 156 218 176 473 58 715 -85 173 -250 307 -438 355 -75
19 -204 26 -271 16z m239 -127 c191 -49 344 -193 403 -378 95 -297 -66 -615
-364 -718 -89 -30 -259 -32 -342 -4 -234 80 -385 268 -405 506 -23 265 162
523 426 594 72 20 207 20 282 0z"/>
<path d="M1496 3954 c-211 -46 -414 -182 -536 -359 -142 -206 -183 -489 -108
-733 141 -460 634 -714 1092 -561 466 155 704 667 525 1129 -81 212 -277 404
-494 485 -144 55 -333 70 -479 39z m373 -124 c260 -72 464 -284 528 -548 23
-95 20 -255 -6 -355 -55 -207 -202 -388 -393 -481 -99 -48 -174 -67 -294 -73
-332 -18 -632 190 -740 512 -36 108 -44 268 -19 381 78 360 399 608 760 589
50 -3 124 -14 164 -25z"/>
<path d="M75 3226 c-14 -10 -20 -30 -23 -79 -4 -60 -2 -68 22 -92 19 -19 32
-24 49 -20 36 11 47 35 47 102 0 50 -4 67 -20 83 -23 23 -49 25 -75 6z"/>
</g>
</svg>
